<?xml version="1.0" encoding="UTF-8" standalone="no"?>
<!DOCTYPE svg PUBLIC "-//W3C//DTD SVG 1.1 Tiny//EN" "http://www.w3.org/Graphics/SVG/1.1/DTD/svg11-tiny.dtd">
<svg xmlns="http://www.w3.org/2000/svg" xmlns:xlink="http://www.w3.org/1999/xlink" baseProfile="tiny" height="155.905" style="overflow:visible;enable-background:new -463.969 80.92 841.89 155.905;" version="1.1" viewBox="-463.969 80.92 841.89 155.905" width="841.89">
<g>
<g>
<g>
<path d="     M-390.704,219.134c1.15-1.153,1.833-2.609,1.833-4.141c0-1.583-0.701-3.06-1.932-4.266l-0.044-0.073     c-1.159-1.024-2.507-1.547-3.926-1.547c-1.563,0-3.045,0.703-4.258,1.946c-1.822,1.762-4.329,2.896-7.077,2.896     c-5.642,0-10.224-4.663-10.224-10.351c0-5.74,4.582-10.385,10.224-10.385c2.748,0,5.255,1.152,7.077,2.898     c1.212,1.26,2.704,1.98,4.258,1.98c1.527,0,2.983-0.685,4.205-1.854l0.071-0.09l0.017-0.036l0.02-0.019l0.035-0.053h0.019     l0.026-0.039l0.018-0.016l0.009-0.054h0.018l0.054-0.054l0.037-0.036v-0.019l0.037-0.057l0,0l0.034-0.069l0,0l0.091-0.125l0,0     l0.063-0.127v-0.018l0.071-0.089h0.01l0.027-0.075l0.018-0.016l0.018-0.018l0.018-0.056l0.018-0.035l0.046-0.055v-0.034     l0.008-0.037l0.045-0.036l0.008-0.02l0.02-0.016c0.07-0.18,0.143-0.29,0.232-0.488l0,0l0.071-0.18h0.01l0.01-0.053v-0.017     c0.071-0.163,0.125-0.325,0.178-0.487v-0.019l0.02-0.054l0,0l0.017-0.072l0,0l0.018-0.108v-0.035l0,0v-0.02l0.036-0.123     l0.018-0.111v-0.035l0,0v-0.054v-0.017v-0.037V193l0.019-0.071v-0.037h0.018v-0.056v-0.035l0,0v-0.07l0,0l0,0v-0.073v-0.034     v-0.037v-0.02v-0.052l0,0v-0.09v-0.127v-0.019l0,0v-0.055l0,0v-0.105c0-1.585-0.727-3.044-1.949-4.267     c-1.77-1.854-2.866-4.356-2.866-7.092c0-5.651,4.637-10.278,10.339-10.278c5.713,0,10.338,4.627,10.338,10.278     c0,2.755-1.104,5.273-2.9,7.092c-1.222,1.261-1.949,2.682-1.949,4.267v0.105l0,0v0.055l0,0v0.054v0.017v0.056v0.02v0.09l0,0     v0.035v0.036v0.037v0.107v0.036v0.034l0,0v0.055l0,0V193l0,0l0,0l0.017,0.089l0,0l0.018,0.054h0.01l0.009,0.107v0.039l0,0v0.07     l0.018,0.038v0.015l0.01,0.02v0.035v0.073h0.018v0.053v0.02l0.008,0.071l0,0v0.072h0.018l0.009,0.054l0,0l0.063,0.181v0.017     l0.072,0.2v0.017l0.01,0.035l0.018,0.018c0.036,0.127,0.09,0.236,0.134,0.342l0,0l0.044,0.109l0.009,0.019l0,0v0.019l0.162,0.288     l0.027,0.016l0.01,0.019l0.018,0.055l0.019,0.019l0.018,0.072l0,0l0.026,0.053v0.019l0.044,0.037l0.118,0.178l0,0l0.053,0.072     l0.037,0.056l0,0l0.018,0.053v0.037l0.161,0.18l0.019,0.018l0.126,0.108l0.009,0.034l0.036,0.055l0,0l0.08,0.071     c1.212,1.243,2.696,1.963,4.286,1.963c1.519,0,2.901-0.684,4.114-1.874c1.877-1.835,4.392-3.002,7.186-3.002     c5.65,0,10.222,4.623,10.222,10.348c0,5.723-4.571,10.349-10.222,10.349c-2.758,0-5.309-1.153-7.186-3.005     c-1.187-1.153-2.578-1.801-4.114-1.801c-1.474,0-2.848,0.595-4.034,1.657l-0.018,0.018l-0.044,0.054l0,0l-0.046,0.052     l0.333-0.016l-0.027,0.036h-0.027l-0.027,0.073h-0.009l-0.098,0.106l-0.027,0.018l-0.09,0.091l-0.008,0.035l-0.027,0.035     l-0.019,0.036l-0.027,0.036l-0.008,0.037l-0.027,0.035v0.037l-0.037,0.019l-0.019,0.036l-0.008,0.053h-0.027l-0.028,0.036     l-0.018,0.034l-0.018,0.039l-0.018,0.017l-0.027,0.055l-0.01,0.034l-0.017,0.038l-0.028,0.036l-0.036,0.017l-0.018,0.036     l-0.009,0.056h-0.01l-0.026,0.034l-0.017,0.056l-0.027,0.017l-0.009,0.036l-0.045,0.036l-0.009,0.019l-0.045,0.089l0,0     l-0.019,0.037l-0.018,0.072l0,0l-0.018,0.053l-0.019,0.036l-0.017,0.017v0.055c-0.045,0.073-0.081,0.144-0.135,0.251v0.039     l-0.01,0.017l-0.018,0.053l-0.01,0.039v0.016l-0.017,0.091l0,0l-0.009,0.035v0.036l-0.008,0.038v0.034l-0.019,0.037v0.017     l-0.018,0.055l-0.018,0.072v0.036l-0.019,0.053l0,0h-0.178v0.02l-0.02,0.071l0,0l-0.018,0.09l0,0v0.056v0.033l-0.008,0.036l0,0     l-0.009,0.073l0,0l-0.018,0.072v0.017l-0.008,0.128l-0.009,0.035l-0.018,0.054v0.019v0.072l0,0v0.07l0,0l0,0l-0.019,0.145v0.074     l0,0v0.087l0,0l-0.007,0.091l0,0v0.072l0,0l-0.01,0.054v0.02v0.071l0,0v0.072l0,0v0.073v0.069c0,1.531,0.692,2.989,1.842,4.176     c1.851,1.873,3,4.374,3,7.2c0,5.67-4.627,10.276-10.33,10.276c-5.696,0-10.331-4.606-10.331-10.276     C-393.687,223.56-392.564,221.005-390.704,219.134L-390.704,219.134z" style="fill:#495677;stroke:#FFFFFF;stroke-width:0.9879;stroke-linecap:round;stroke-linejoin:round;"/>
<path d="     M-412.055,129.897c1.159-1.196,1.841-2.619,1.841-4.167c0-1.583-0.702-3.06-1.941-4.284l-0.044-0.054     c-1.159-0.998-2.497-1.52-3.917-1.52c-1.58,0-3.044,0.675-4.257,1.89c-1.841,1.782-4.338,2.906-7.086,2.906     c-5.632,0-10.205-4.644-10.205-10.348c0-5.742,4.573-10.403,10.205-10.403c2.749,0,5.246,1.134,7.086,2.906     c1.213,1.251,2.677,1.971,4.257,1.971c1.529,0,2.993-0.675,4.187-1.845l0.09-0.107h0.018l0.037-0.055v-0.018l0.026-0.035     l0.044-0.037l0.02-0.027l0.026-0.027l0.054-0.081l0.008-0.026l0.02-0.019l0.026-0.018l0.027-0.036l0.017-0.019v-0.053l0.037-0.01     l0.035-0.054l0,0l0.082-0.107l0,0l0.062-0.117l0,0l0.063-0.09v-0.018l0,0l0,0l0.054-0.09l0.017-0.027l0.019-0.055l0.009-0.009     l0.008-0.045l0.018-0.027l0.117-0.207l0.027-0.027l0.107-0.188l0,0l0.02-0.064l0,0l0.053-0.136l0,0l0.036-0.045l0,0l0.009-0.044     v-0.009c0.028-0.081,0.063-0.162,0.09-0.243v-0.01v-0.053l0.028-0.063v-0.027l0.017-0.026v-0.028v-0.027l0.009-0.035v-0.018     l0.008-0.037v-0.018l0.037-0.099l0.01-0.081v-0.046l0,0v-0.009l0.01-0.09l0.017-0.099l0,0l0.026-0.107v-0.161l0.01-0.118v-0.036     l0.027-0.108v-0.035v-0.091v-0.035v-0.019l0.008-0.054v-0.008v-0.055v-0.143v-0.01l0,0v-0.072l0,0v-0.063     c0-1.583-0.719-3.05-1.949-4.265c-1.743-1.854-2.856-4.347-2.856-7.091c0-5.669,4.607-10.242,10.339-10.242     c5.705,0,10.332,4.572,10.332,10.242c0,2.762-1.105,5.247-2.893,7.11c-1.231,1.232-1.959,2.68-1.959,4.256v0.072l0,0l0.01,0.063     l0,0v0.082v0.008v0.053v0.01v0.044v0.008v0.045v0.028v0.035v0.063v0.01v0.035v0.037v0.018v0.037v0.018v0.125v0.017l0,0v0.064l0,0     v0.036l0,0h0.018l0.017,0.09v0.09v0.009l0.02,0.107v0.028l0.043,0.153v0.026l0.01,0.045l0,0l0.027,0.045l0.081,0.198l0,0     l0.063,0.189v0.008l0.018,0.045v0.027c0.064,0.144,0.135,0.288,0.208,0.442h0.018l0,0l0.018,0.053l0,0     c0.054,0.125,0.135,0.261,0.233,0.369l0.009,0.027l0.027,0.027l0.018,0.018c0.162,0.288,0.377,0.566,0.603,0.828l0.017,0.017     l0.054,0.064c1.223,1.206,2.686,1.935,4.258,1.935c1.535,0,2.937-0.693,4.168-1.873c1.841-1.809,4.375-3.005,7.177-3.005     c5.641,0,10.205,4.643,10.205,10.367c0,5.724-4.573,10.358-10.205,10.358c-2.775,0-5.335-1.161-7.177-2.988     c-1.204-1.179-2.613-1.836-4.168-1.836c-1.446,0-2.847,0.604-4.042,1.691l-0.053,0.046h-0.018l-0.037,0.037l-0.009,0.009     l-0.027,0.053l-0.017,0.018l-0.037,0.027v0.01l0.251,0.188l0,0l-0.035,0.053l0,0l-0.037,0.037l0,0l-0.054,0.053l0,0l-0.037,0.036     l-0.009,0.019l-0.081,0.117l0,0l-0.143,0.161l0,0l-0.09,0.1v0.017l-0.036,0.055v0.01l-0.045,0.043l0,0l-0.037,0.056l0,0     l-0.036,0.043l0,0l-0.035,0.064l0,0l-0.037,0.044v0.027l-0.037,0.037v0.018l-0.035,0.037v0.026l-0.019,0.045v0.009l-0.018,0.054     l-0.017,0.01l-0.019,0.054l0,0l-0.035,0.055h-0.009l-0.01,0.034l-0.018,0.02l-0.018,0.036l-0.018,0.018l-0.018,0.054l-0.037,0.09     l-0.036,0.036v0.018l-0.018,0.054v0.018l-0.018,0.019l-0.009,0.026v0.028l-0.01,0.026c-0.018,0.09-0.071,0.182-0.088,0.288     l-0.02,0.037l-0.017,0.036v0.036l-0.098,0.162v0.019l-0.01,0.037l-0.017,0.017l-0.019,0.026v0.027v0.055v0.035v0.027     l-0.008,0.028v0.035l-0.01,0.019v0.036v0.019l-0.017,0.144v0.054v0.017v0.044v0.011l-0.029,0.179v0.01l-0.008,0.126v0.054v0.009     v0.063v0.018v0.053l0,0v0.055l0,0v0.054v0.018v0.081l0,0v0.063l0,0v0.072l0,0v0.053c0,1.539,0.683,2.962,1.824,4.176     c1.841,1.845,2.999,4.392,2.999,7.191c0,5.669-4.617,10.259-10.32,10.259c-5.696,0-10.332-4.589-10.332-10.259     C-415.056,134.288-413.897,131.742-412.055,129.897L-412.055,129.897z" style="fill:#1F1A17;stroke:#FFFFFF;stroke-width:0.9879;stroke-linecap:round;stroke-linejoin:round;"/>
<path d="     M-390.732,174.067c1.142-1.226,1.815-2.646,1.815-4.195c0-1.564-0.691-3.061-1.904-4.282l-0.09-0.073     c-1.149-0.989-2.496-1.513-3.907-1.513c-1.554,0-3.054,0.684-4.248,1.907c-1.834,1.783-4.348,2.899-7.098,2.899     c-5.64,0-10.204-4.626-10.204-10.35c0-5.74,4.564-10.395,10.204-10.395c2.75,0,5.264,1.144,7.098,2.906     c1.194,1.254,2.694,1.99,4.248,1.99c1.536,0,2.991-0.684,4.203-1.862l0.099-0.089l0,0l0.018-0.011l0.027-0.028l0.01-0.017     l0.035-0.037l0.01-0.016l0.026-0.019l0.01-0.036l0.027-0.018l0,0l0.081-0.072l0.009-0.036l0.035-0.019l0.02-0.053l0.026-0.037     h0.008l0.037-0.054v-0.018l0.037-0.055l0,0l0.018-0.018l0.063-0.072l0,0l0.081-0.127l0,0l0.044-0.042l0,0v-0.046l0.036-0.053     l0.018-0.054l0,0l0.09-0.09l0.009-0.055l0.028-0.054l0.017-0.018l0.01-0.035l0.008-0.019l0.018-0.018v-0.037l0.018-0.018v-0.018     l0.018-0.036v-0.107l0.026-0.037h0.01l0.036-0.053l0,0l0.009-0.063h0.026l0.019-0.073l0,0l0.018-0.054l0,0l0.027-0.055     l0.08-0.179v-0.018l0.02-0.036v-0.018l0.008-0.036v-0.036l0.009-0.019l0.018-0.036v-0.045v-0.045v-0.017l0.019-0.037v-0.054     v-0.018v-0.018v-0.018l0.018-0.018l0.018-0.055v-0.009l0.01-0.099l0,0l0,0v-0.018l0.026-0.107v-0.072l0,0l0,0l0.037-0.125l0,0     v-0.054v-0.019v-0.035l0.017-0.01l0,0l0.018-0.108v-0.018l0,0v-0.09v-0.054v-0.009v-0.044v-0.019v-0.054v-0.019v-0.036v-0.018     v-0.054v-0.108v-0.018l0,0v-0.072l0,0v-0.125c0-1.575-0.701-3.06-1.93-4.283c-1.77-1.846-2.885-4.338-2.885-7.074     c0-5.67,4.636-10.25,10.339-10.25c5.724,0,10.34,4.581,10.34,10.25c0,2.753-1.105,5.265-2.884,7.092     c-1.231,1.233-1.967,2.708-1.967,4.283v0.055v0.017v0.054v0.018v0.037v0.027v0.036v0.009v0.09v0.019v0.027v0.026v0.027v0.027     v0.056v0.07l0,0v0.073l0,0v0.073l0,0v0.017l0.017,0.082v-0.037v0.054v0.018l0.01,0.035v0.019l0,0l0.01,0.144h0.035v0.054v0.036     l0.019,0.036v0.018l0.045,0.108l0,0l0.009,0.072l0,0l0.018,0.055l0,0l0.036,0.126l0.018,0.035v0.019l0.009,0.037v0.043     l0.01,0.046l0.017,0.018v0.035l0.018,0.037v0.009l0.01,0.045c0.063,0.152,0.134,0.297,0.198,0.44l0.008,0.018l0.053,0.09     l0.02,0.036l0.062,0.126l0.009,0.019l0.045,0.037v0.007l0.045,0.099h0.018l0,0l0.027,0.073l0,0l0.046,0.053l0.008,0.02     c0.063,0.089,0.144,0.196,0.198,0.287l0.017,0.019l0.019,0.035l0.018,0.01l0.018,0.044l0,0l0.073,0.126l0,0l0.107,0.116l0,0     l0.036,0.055h0.018l0.036,0.028l0.099,0.089c1.212,1.215,2.685,1.954,4.276,1.954c1.517,0,2.928-0.685,4.141-1.882     c1.861-1.79,4.384-3.023,7.177-3.023c5.651,0,10.224,4.681,10.224,10.386c0,5.723-4.573,10.348-10.224,10.348     c-2.758,0-5.316-1.15-7.177-3.005c-1.193-1.134-2.604-1.801-4.141-1.801c-1.464,0-2.848,0.613-4.061,1.656l0,0l-0.045,0.073l0,0     l-0.044,0.071l0,0l-0.036,0.034l-0.019,0.038l-0.036,0.036l0,0l-0.053,0.071l0,0l-0.037,0.057v0.014l-0.045,0.039v0.034     c-0.09,0.108-0.206,0.217-0.288,0.36l0,0l-0.071,0.108l0,0l-0.037,0.072l0,0l-0.027,0.072h-0.017l-0.02,0.036v0.034l-0.044,0.037     v0.018l-0.026,0.036v0.037l-0.037,0.035v0.017l-0.081,0.128l0.081,0.07l-0.027,0.036v0.02l-0.027,0.016v0.037l-0.026,0.036     l-0.008,0.036l-0.019,0.072h-0.01l-0.081,0.144l-0.018,0.037l-0.009,0.036l-0.007,0.071l-0.02,0.035l-0.018,0.037l-0.008,0.035     v0.037l-0.009,0.035l-0.018,0.035v0.036l-0.008,0.036l-0.054,0.146v0.034l-0.01,0.037v0.035l-0.018,0.037v0.036v0.036     l-0.008,0.033l-0.018,0.039l-0.01,0.07l-0.018,0.038l-0.01,0.034v0.072h-0.027l-0.018,0.089l0,0v0.02l-0.009,0.035v0.037     l-0.01,0.055v0.017l-0.018,0.036v0.036v0.054v0.02l-0.017,0.144l0,0v0.089l0,0v0.057v0.033l-0.01,0.056v0.017v0.055h-0.009v0.053     v0.036v0.071l0,0v0.074l0,0v0.069l0,0v0.073l0,0v0.072l0,0v0.091l0,0v0.052c0,1.549,0.692,2.989,1.841,4.176     c1.833,1.874,3,4.41,3,7.237c0,5.634-4.627,10.223-10.33,10.223c-5.695,0-10.331-4.589-10.331-10.223     c0-2.827,1.132-5.363,2.983-7.218v-0.02h-0.046v-0.069H-390.732z" style="fill:#D9322B;stroke:#FFFFFF;stroke-width:0.9879;stroke-linecap:round;stroke-linejoin:round;"/>
<path d="     M-368.103,151.252c1.149-1.198,1.842-2.627,1.842-4.166c0-1.566-0.702-3.06-1.932-4.275l-0.055-0.064     c-1.132-1.017-2.487-1.538-3.925-1.538c-1.572,0-3.037,0.675-4.25,1.89c-1.841,1.782-4.328,2.907-7.076,2.907     c-5.625,0-10.224-4.663-10.224-10.341c0-5.732,4.599-10.412,10.224-10.412c2.766,0,5.245,1.133,7.076,2.907     c1.232,1.26,2.678,1.989,4.25,1.989c1.553,0,2.981-0.675,4.204-1.854l0.116-0.127l0,0l0.045-0.044l0,0l0.127-0.153l0,0     l0.027-0.054h0.017l0.017-0.055l0,0l0.046-0.036h0.008l0.02-0.044l0.016-0.019l0.018-0.026l0.019-0.028     c0.108-0.135,0.171-0.252,0.253-0.378l0,0l0,0l0.08-0.107l0,0l0.062-0.126l0,0l0.117-0.234l0,0l0.018-0.027l0.054-0.1l0.01-0.018     l0.008-0.027l0.108-0.234l0,0l0,0l0.027-0.055v-0.019c0.098-0.216,0.152-0.458,0.242-0.684v-0.036v-0.036l0,0l0.01-0.099l0,0     l0.008-0.099v-0.018l0,0l0.019-0.073l0,0l0.017-0.054l0,0v-0.045v-0.01v-0.017v-0.073v-0.072v-0.019v-0.017l0,0l0.019-0.08l0,0     v-0.037v-0.145v-0.017v-0.036l0.018-0.037v-0.035v-0.037v-0.144l0,0l0,0v-0.054l0,0v-0.071c0-1.585-0.728-3.07-1.941-4.284     c-1.76-1.836-2.874-4.356-2.874-7.083c0-5.679,4.626-10.25,10.339-10.25c5.722,0,10.339,4.59,10.339,10.25     c0,2.754-1.124,5.256-2.911,7.091c-1.239,1.224-1.958,2.709-1.958,4.293v0.063l0,0v0.062l0,0v0.055v0.017v0.037v0.017     l0.009,0.072v0.026v0.046v0.017v0.037v0.018v0.071l0.008,0.01v0.046v0.008v0.053l0,0l0.018,0.09v0.037l0,0v0.055v0.018v0.036l0,0     l0.018,0.089l0.01,0.099v0.027v0.018v0.037v0.017v0.045v0.009l0.009,0.036l0.071-0.017l0.009,0.035v0.018l0,0l0.028,0.117l0,0     l0.035,0.045l0,0l0.019,0.054v0.019l0.027,0.071l0,0l0.008,0.046l0,0l0.026,0.044v0.018l0.01,0.037l0.036,0.099     c0.054,0.108,0.108,0.207,0.152,0.333l0,0l0,0l0.046,0.089l0.008,0.019l0,0l0.009,0.019c0.054,0.134,0.162,0.278,0.27,0.422     v0.018l0.01,0.054h0.008l0.144,0.226l0,0l0.036,0.045l0,0l0.018,0.054l0.019,0.017l0.018,0.036l0.018,0.018l0.018,0.027     l0.018,0.027c0.08,0.118,0.17,0.243,0.278,0.351l0.071,0.063c1.212,1.233,2.714,1.961,4.268,1.961c1.528,0,2.937-0.701,4.15-1.88     c1.841-1.799,4.393-3.015,7.168-3.015c5.649,0,10.222,4.662,10.222,10.395c0,5.695-4.572,10.339-10.222,10.339     c-2.758,0-5.328-1.161-7.168-2.996c-1.186-1.17-2.622-1.828-4.15-1.828c-1.438,0-2.84,0.62-4.025,1.656v0.009l-0.045,0.055v0.017     l-0.036,0.037h-0.018l-0.017,0.055l-0.019,0.018l-0.035,0.036l-0.02,0.008l-0.034,0.045l0,0h-0.02l-0.071,0.09h-0.018     l-0.026,0.046l-0.009,0.009l-0.073,0.053l0.271,0.262l-0.02,0.018l-0.054,0.053l-0.017,0.037l-0.018,0.026l-0.019,0.027     l-0.018,0.028l-0.036,0.035l-0.017,0.044l-0.045,0.019l-0.01,0.019l-0.026,0.035l-0.01,0.027l-0.037,0.054l-0.008,0.009     l-0.01,0.044l-0.009,0.009l-0.035,0.056l-0.019,0.026l-0.018,0.027l-0.018,0.036l-0.072,0.081l-0.008,0.027l-0.01,0.036     l-0.017,0.027v0.027l-0.028,0.027l-0.026,0.027l-0.01,0.027l-0.009,0.028l-0.045,0.062l-0.045,0.081v0.026l-0.044,0.109h-0.01     l-0.071,0.117v0.026l-0.018,0.028l-0.01,0.044l-0.036,0.036v0.028l-0.017,0.053v0.01l-0.01,0.045l-0.018,0.016l-0.037,0.046     v0.009l-0.026,0.072v0.009l-0.008,0.037l-0.02,0.018l-0.017,0.036v0.027l-0.01,0.054v0.018l-0.027,0.063v0.008l-0.008,0.054     v0.027l-0.026,0.054v0.009v0.045v0.009l-0.028,0.071v0.008v0.055l-0.008,0.009v0.054v0.018l-0.019,0.054l0,0v0.055l0,0     l-0.018,0.044v0.018v0.063v0.018v0.053v0.01l-0.018,0.188l0,0v0.063l0,0v0.063l0,0l-0.018,0.054l0,0v0.063l0,0v0.099l0,0v0.063     l0,0v0.072l0,0v0.054c0,1.557,0.701,2.969,1.833,4.185c1.842,1.853,3,4.401,3,7.189c0,5.652-4.616,10.278-10.331,10.278     c-5.703,0-10.338-4.626-10.338-10.278C-371.077,155.673-369.945,153.107-368.103,151.252L-368.103,151.252z" style="fill:#007CC3;stroke:#FFFFFF;stroke-width:0.9879;stroke-linecap:round;stroke-linejoin:round;"/>
<path d="     M-434.792,152.521c1.15-1.213,1.833-2.646,1.833-4.166c0-1.583-0.71-3.078-1.94-4.301l-0.055-0.072     c-1.159-0.999-2.496-1.521-3.925-1.521c-1.572,0-3.054,0.684-4.258,1.898c-1.841,1.792-4.33,2.907-7.078,2.907     c-5.641,0-10.222-4.652-10.222-10.349c0-5.724,4.581-10.385,10.222-10.385c2.749,0,5.237,1.107,7.078,2.889     c1.213,1.251,2.704,1.988,4.258,1.988c1.527,0,2.982-0.692,4.194-1.844l0.09-0.1l0.027-0.017l0.018-0.027l0.009-0.027l0.018-0.01     l0.037-0.026v-0.027l0.037-0.036l0.017-0.019l0.073-0.108l0,0l0.054-0.044l0,0l0.045-0.046v-0.009l0.089-0.107l0,0l0.072-0.117     v-0.009l0.073-0.125v-0.01l0.035-0.027v-0.009l0.019-0.045l0.018-0.008l0.028-0.045l0.026-0.055l0.009-0.017l0.019-0.027     l0.008-0.026l0.019-0.019l0.017-0.026c0.099-0.153,0.189-0.289,0.251-0.45l0,0l0.027-0.054l0,0l0.027-0.053l0.018-0.055l0,0     v-0.01l0.009-0.035v-0.019l0.018-0.036v-0.019l0.008-0.044l0.037-0.125v-0.037v-0.026l0.018-0.036l0.01-0.027l0.018-0.037v-0.035     l0.01-0.037v-0.017l0.017-0.036v-0.009v-0.054v-0.01l0.028-0.071v-0.018l0,0l0.008-0.09l0.019-0.018l0,0v-0.053l0,0l0.009-0.073     l0,0v-0.017l0.019-0.099l0,0l0.009-0.072l0.008-0.036v-0.018l0.018-0.126l0.027-0.019l0,0v-0.089v-0.038v-0.126v-0.035v-0.019     v-0.045v-0.01v-0.053l0,0v-0.073v-0.126l0,0l0,0v-0.225l0,0v-0.062c0-1.585-0.737-3.079-1.95-4.293     c-1.779-1.845-2.857-4.329-2.857-7.092c0-5.67,4.618-10.25,10.322-10.25c5.722,0,10.339,4.599,10.339,10.25     c0,2.763-1.096,5.255-2.883,7.092c-1.232,1.214-1.968,2.699-1.968,4.293v0.062l0,0v0.045v0.018v0.054v0.019v0.053l0.018,0.019     v0.035v0.018v0.036v0.037l0.019,0.017v0.073v0.053v0.018v0.046v0.009v0.053v0.019v0.054l0,0l0,0l0.035,0.198l0.009,0.044l0,0l0,0     l0.009,0.117v0.036l0.018,0.045v0.036v0.018v0.045l0.018,0.09v0.026l0.018,0.055l0,0l0.018,0.053l0,0l0.054,0.2h0.019     l0.044,0.171l0.01,0.008l0.018,0.037v0.018c0.071,0.162,0.144,0.314,0.215,0.468l0,0c0.071,0.161,0.153,0.315,0.269,0.468     l0.02,0.026v0.019c0.071,0.126,0.152,0.234,0.232,0.369l0.027,0.054h0.019l0.017,0.036l0.018,0.027l0.019,0.027l0.018,0.009     l0.198,0.252l0.017,0.008l0.037,0.028v0.018l0,0l0.081,0.063c1.212,1.232,2.694,1.952,4.266,1.952     c1.509,0,2.92-0.702,4.149-1.862c1.842-1.828,4.383-3.016,7.178-3.016c5.642,0,10.222,4.662,10.222,10.386     c0,5.687-4.581,10.332-10.222,10.332c-2.766,0-5.326-1.144-7.178-2.979c-1.203-1.16-2.64-1.817-4.149-1.817     c-1.464,0-2.865,0.602-4.061,1.656l0,0l0,0l-0.089,0.108h-0.018l-0.035,0.054l0,0l-0.055,0.036l0,0l-0.054,0.054l0,0     l-0.054,0.054l0,0l-0.035,0.055l0,0c-0.09,0.143-0.198,0.243-0.288,0.36l0,0c-0.064,0.107-0.135,0.197-0.207,0.314l-0.045,0.054     l0,0l-0.045,0.055l0,0l-0.018,0.036v0.018l-0.09,0.127l-0.036,0.026l-0.01,0.026l-0.008,0.037l-0.019,0.019l-0.018,0.036v0.018     l-0.017,0.063l-0.019,0.018l-0.008,0.036l-0.01,0.027l0.242,0.207l-0.008,0.027v0.027l-0.019,0.026l-0.035,0.09l-0.027,0.044     l-0.01,0.055v0.018l-0.019,0.036v0.019l-0.017,0.027v0.018l-0.055,0.145v0.027v0.027l-0.09,0.108v0.018l-0.008,0.073v0.035     l-0.009,0.026l-0.018,0.046v0.008v0.055v0.009v0.053v0.018l0,0l-0.019,0.063v0.054v0.009v0.045v0.01l-0.018,0.071v0.054h-0.017     v0.055v0.017v0.054v0.018l-0.02,0.055l0,0l-0.017,0.144v0.055l0,0v0.071l0,0l-0.018,0.072l0,0v0.073l0,0v0.072l0,0v0.054l0,0     v0.063l0,0v0.072l0,0v0.073c0,1.52,0.7,2.951,1.842,4.166c1.859,1.844,3.018,4.393,3.018,7.217     c0,5.635-4.627,10.241-10.339,10.241c-5.695,0-10.313-4.606-10.313-10.241C-437.774,156.912-436.634,154.357-434.792,152.521     L-434.792,152.521z" style="fill:#84C225;stroke:#FFFFFF;stroke-width:0.9879;stroke-linecap:round;stroke-linejoin:round;"/>
<path d="     M-435.34,197.211c1.159-1.208,1.833-2.629,1.833-4.176c0-1.583-0.71-3.078-1.913-4.264l-0.073-0.056     c-1.141-1.025-2.496-1.548-3.925-1.548c-1.563,0-3.036,0.685-4.249,1.945c-1.842,1.744-4.339,2.86-7.079,2.86     c-5.659,0-10.231-4.661-10.231-10.349c0-5.724,4.581-10.386,10.231-10.386c2.74,0,5.237,1.135,7.079,2.896     c1.212,1.278,2.686,1.983,4.249,1.983c1.536,0,2.963-0.688,4.177-1.857l0.055-0.034v-0.02l0.044-0.053h0.009l0.026-0.054     c0.485-0.541,0.872-1.135,1.123-1.747v-0.017c0.081-0.2,0.144-0.343,0.197-0.522l0,0l0.037-0.145l0,0l0.026-0.105v-0.019v-0.021     v-0.018l0.018-0.089v-0.037l0.008-0.107l0,0v-0.019l0.018-0.054v-0.037v-0.052v-0.02v-0.035v-0.034l0,0l0.01-0.108l0.018-0.036     v-0.038v-0.034v-0.037v-0.035l0,0v-0.037v-0.035l0.009-0.036v-0.036v-0.072h0.009v-0.054v-0.124l0,0l0,0v-0.092l0,0v-0.053     c0-1.587-0.736-3.081-1.958-4.287c-1.778-1.87-2.856-4.355-2.856-7.089c0-5.654,4.608-10.251,10.349-10.251     c5.704,0,10.321,4.589,10.321,10.251c0,2.752-1.105,5.254-2.893,7.089c-1.223,1.206-1.95,2.7-1.95,4.287v0.053l0,0v0.092l0,0     v0.052v0.018v0.037v0.034v0.072v0.037v0.036v0.036v0.053v0.02l0.008,0.035l0,0v0.071v0.018v0.057l0,0v0.069l0,0v0.02l0.037,0.197     v0.072v0.017h0.009l0.054,0.255v0.054l0.035,0.089v0.02l0.009,0.069v0.018l0.037,0.055l0,0l0.054,0.182v0.019l0.017,0.07     l0.02,0.055l0.008,0.017v0.036v0.037l0.01,0.053v0.02c0.044,0.125,0.098,0.215,0.151,0.306l0,0l0.064,0.125v0.019l0,0v0.018     l0.07,0.128l0,0l0.037,0.089l0.019,0.054v0.019l0.018,0.053l0.081,0.092v0.017l0.044,0.056l0,0l0.02,0.07l0.125,0.18v0.018     l0.018,0.038l0.019,0.017l0.017,0.036l0.018,0.021l0.019,0.034c0.108,0.144,0.215,0.271,0.305,0.396l0,0l0.045,0.056l0,0     l0.098,0.087c1.205,1.226,2.696,1.964,4.259,1.964c1.544,0,2.927-0.721,4.159-1.909c1.842-1.782,4.392-3.005,7.177-3.005     c5.632,0,10.212,4.698,10.212,10.385c0,5.725-4.58,10.367-10.212,10.367c-2.768,0-5.328-1.17-7.177-3.024     c-0.962-1.187-2.371-1.817-3.908-1.817c-1.419,0-2.794,0.558-3.979,1.603l0,0l-0.044,0.055l-0.01,0.018l-0.054,0.034h-0.017     l-0.037,0.074h-0.017l-0.019,0.07h-0.018l-0.027,0.072l-0.01,0.02l-0.044,0.018v0.035l-0.026,0.019l-0.018,0.035l-0.046,0.055     l-0.008,0.018c-0.136,0.145-0.243,0.288-0.369,0.449l0,0l-0.017,0.056l-0.09,0.143l0,0l-0.054,0.074l0,0l-0.045,0.053     l-0.008,0.017l-0.037,0.057v0.016l-0.017,0.037h-0.073l-0.018,0.071c-0.09,0.162-0.198,0.323-0.279,0.54l0,0l-0.026,0.054     l-0.028,0.071l0,0l-0.026,0.055v0.037l-0.018,0.071h-0.009l-0.009,0.02v0.034l-0.018,0.055v0.036l-0.017,0.034v-0.07l-0.036,0.07     v0.038l-0.017,0.037l-0.046,0.142v0.038l-0.008,0.07l0,0l-0.019,0.037l0,0l-0.017,0.089v0.019l-0.01,0.091l0,0l-0.063,0.053l0,0     l-0.018,0.036v0.035v0.037l-0.009,0.018v0.056l0,0v0.105l0,0v0.055v0.019l-0.009,0.052l0,0v0.092l0,0v0.073l0,0v0.108l0,0v0.034     l0,0v0.073l0,0l-0.019,0.07l0,0v0.091l0,0v0.072l0,0v0.071v0.073c0,1.546,0.684,2.968,1.842,4.176     c1.842,1.871,3.018,4.392,3.018,7.199c0,5.669-4.636,10.258-10.34,10.258c-5.712,0-10.347-4.589-10.347-10.258     C-438.331,201.602-437.19,199.064-435.34,197.211L-435.34,197.211z" style="fill:#F8C300;stroke:#FFFFFF;stroke-width:0.9879;stroke-linecap:round;stroke-linejoin:round;"/>
</g>
<path d="M-248.058,140.039c0,1.882-0.621,3.356-1.859,4.418    c-1.223,1.071-2.777,1.611-4.662,1.611c-3.458,0-5.794-2.152-6.972-6.417l-1.705-5.723h-22.117l-1.805,5.814    c-1.338,4.22-3.727,6.326-7.186,6.326c-4.214,0-6.325-1.926-6.325-5.742c0-1.809,0.503-4.085,1.501-6.83l14.22-38.608    c2.515-6.75,5.981-10.151,10.401-10.151c4.599,0,8.084,3.069,10.401,9.215l14.912,39.975    C-248.471,136.016-248.058,138.032-248.058,140.039L-248.058,140.039z M-267.371,121.401l-6.808-21.75h-0.189l-7.097,21.75    H-267.371z M-216.25,145.862h-21.712c-1.851,0-3.457-0.612-4.797-1.808c-1.321-1.197-1.984-2.728-1.984-4.508V92.937    c0-4.732,2.235-7.118,6.691-7.118c4.465,0,6.692,2.519,6.692,7.523v39.975h14.912c1.94,0,3.504,0.558,4.689,1.718    c1.195,1.117,1.807,2.673,1.807,4.608c0,1.79-0.593,3.284-1.807,4.445C-212.971,145.25-214.462,145.862-216.25,145.862    L-216.25,145.862z M-174.642,139.346c0,4.338-2.281,6.515-6.8,6.515h-20.803c-2.076,0-3.747-0.612-5.05-1.808    c-1.294-1.197-1.949-2.826-1.949-4.904V93.143c0-1.943,0.565-3.554,1.752-4.858c1.186-1.295,2.713-1.953,4.663-1.953h21.397    c4.212,0,6.314,2.097,6.314,6.309c0,4.139-2.092,6.208-6.314,6.208h-14.427v10.728h13.42c1.859,0,3.396,0.576,4.598,1.737    c1.206,1.16,1.808,2.69,1.808,4.553c0,1.863-0.585,3.402-1.808,4.563c-1.202,1.169-2.738,1.755-4.598,1.755h-13.42v11.114h14.417    C-176.923,133.334-174.642,135.333-174.642,139.346z M-130.538,146.348c-1.714,0-3.512-1.251-5.299-3.797l-12.531-17.081    l-12.765,17.476c-1.668,2.277-3.602,3.402-5.811,3.402c-4.661,0-6.989-2.169-6.989-6.516c0-1.845,0.684-3.708,2.103-5.598    l15.288-20.347l-12.279-16.442c-1.464-1.925-2.21-3.564-2.21-4.895c0-1.683,0.746-3.312,2.21-4.933    c1.132-1.196,2.668-1.781,4.59-1.781c2.407,0,4.537,1.232,6.414,3.698l9.493,12.923l8.904-12.526    c1.93-2.735,4.32-4.112,7.204-4.112c1.588,0,3.038,0.639,4.339,1.953c1.301,1.305,1.957,2.781,1.957,4.391    c0,1.863-0.583,3.573-1.743,5.103l-12.567,16.604l15.621,20.843c1.195,1.547,1.798,3.249,1.798,5.093    c0,2.079-0.764,3.69-2.265,4.815C-126.575,145.789-128.416,146.348-130.538,146.348L-130.538,146.348z M-70.424,140.039    c0,1.882-0.611,3.356-1.851,4.418c-1.222,1.063-2.775,1.611-4.644,1.611c-3.46,0-5.803-2.152-7.008-6.417l-1.696-5.723h-22.09    l-1.824,5.814c-1.329,4.22-3.717,6.326-7.204,6.326c-4.176,0-6.298-1.926-6.298-5.742c0-1.809,0.494-4.085,1.503-6.83    l14.199-38.608c2.533-6.75,6.009-10.151,10.421-10.151c4.581,0,8.048,3.069,10.401,9.215l14.876,39.975    C-70.809,136.016-70.424,138.032-70.424,140.039L-70.424,140.039z M-89.728,121.401l-6.798-21.75h-0.198l-7.097,21.75H-89.728z     M-14.893,138.869c0,2.142-0.61,3.915-1.813,5.337c-1.187,1.431-2.867,2.161-4.996,2.161c-2.335,0-4.625-1.387-6.905-4.194    l-25.099-31.38v28.761c0,2.133-0.648,3.816-1.914,5.013c-1.268,1.214-2.956,1.809-5.102,1.809c-2.077,0-3.656-0.676-4.751-2.052    c-1.115-1.377-1.663-3.068-1.663-5.166V92.964c0-2.007,0.611-3.663,1.769-5.021c1.159-1.322,2.705-1.98,4.627-1.98    c1.401,0,2.604,0.316,3.592,0.998c1.482,0.938,2.613,1.953,3.432,3.024l25.195,31.354l0.091-0.089V92.964    c0-2.07,0.602-3.744,1.77-5.04c1.159-1.287,2.748-1.952,4.752-1.952c4.681,0,7.015,2.34,7.015,6.992v45.932l0,0V138.869z     M40.621,116.192c0,8.009-2.534,14.911-7.528,20.634c-5.192,6.031-11.748,9.019-19.6,9.019h-16.42    c-2.12,0-3.811-0.621-5.066-1.845c-1.294-1.233-1.923-2.889-1.923-4.959V93.334c0-2.088,0.557-3.762,1.741-5.068    c1.169-1.286,2.786-1.961,4.871-1.961h15.879c6.002,0,10.89,1.243,14.697,3.717C36.146,95.854,40.621,104.573,40.621,116.192z     M26.016,115.688c0-5.202-1.079-9.107-3.216-11.735c-2.822-3.393-6.521-5.084-11.211-5.084H3.505v34.466h7.688    c4.492,0,8.175-1.602,11.121-4.824C24.794,125.847,26.016,121.591,26.016,115.688L26.016,115.688z M80.414,139.346    c0,4.338-2.262,6.515-6.791,6.515H52.802c-2.047,0-3.737-0.612-5.03-1.808c-1.312-1.197-1.941-2.826-1.941-4.904V93.143    c0-1.943,0.557-3.554,1.727-4.858c1.186-1.295,2.712-1.953,4.671-1.953h21.396c4.203,0,6.288,2.097,6.288,6.309    c0,4.139-2.065,6.208-6.288,6.208H59.216v10.728h13.419c1.887,0,3.397,0.576,4.583,1.737c1.237,1.16,1.814,2.69,1.814,4.553    c0,1.863-0.577,3.402-1.814,4.563c-1.186,1.169-2.696,1.755-4.583,1.755H59.216v11.114h14.407    C78.153,133.334,80.414,135.333,80.414,139.346z M127.934,140.039c0,1.99-0.773,3.563-2.371,4.663    c-1.582,1.115-3.433,1.665-5.571,1.665c-1.922,0-3.646-1.044-5.245-3.124l-16.924-21.121l0,0v17.027    c0,2.142-0.593,3.868-1.778,5.209c-1.149,1.341-2.819,2.008-4.959,2.008c-4.454,0-6.684-2.43-6.684-7.308V92.947    c0-1.944,0.648-3.511,1.959-4.742c1.312-1.225,2.982-1.855,5.065-1.855h15.793c5.929,0,10.763,1.666,14.444,5.003    c3.701,3.331,5.569,7.973,5.569,13.931c0,4.149-1.312,7.74-3.899,10.781c-2.586,3.033-5.928,4.851-10.006,5.472l12.217,13.022    C127.144,136.214,127.934,138.032,127.934,140.039z M113.722,105.564c0-1.846-0.663-3.456-1.993-4.77    c-1.33-1.287-2.929-1.944-4.779-1.944h-9.107v13.229h8.514c1.959,0,3.721-0.594,5.175-1.808    C113.004,109.073,113.722,107.499,113.722,105.564z M187.254,92.649c0,4.14-2.174,6.219-6.503,6.219h-14.192v10.609h12.81    c1.778,0,3.271,0.595,4.438,1.81c1.167,1.187,1.741,2.743,1.741,4.598c0,1.827-0.574,3.293-1.741,4.463    c-1.151,1.188-2.64,1.756-4.438,1.756h-12.81v17.44c0,4.535-2.3,6.803-6.809,6.803c-4.401,0-6.61-2.402-6.61-7.199V93.135    c0-1.935,0.575-3.563,1.742-4.869c1.168-1.286,2.729-1.961,4.689-1.961h20.893C184.993,86.332,187.254,88.437,187.254,92.649    L187.254,92.649z M246.865,116.192c0,9.143-2.55,16.576-7.706,22.245c-5.3,5.823-12.486,8.721-21.47,8.721    c-9.019,0-16.15-2.924-21.449-8.82c-5.192-5.587-7.78-13.003-7.78-22.146c0-9.207,2.588-16.721,7.78-22.489    c5.207-5.804,12.361-8.675,21.449-8.675c9.073,0,16.275,2.924,21.577,8.802C244.332,99.525,246.865,107.004,246.865,116.192    L246.865,116.192z M232.349,116.192c0-5.219-1.096-9.477-3.395-12.834c-2.569-3.869-6.379-5.804-11.301-5.804    c-4.924,0-8.695,1.954-11.318,5.896c-2.192,3.275-3.287,7.523-3.287,12.724c0,5.147,1.131,9.387,3.395,12.735    c2.589,3.734,6.342,5.605,11.211,5.605c4.922,0,8.714-1.908,11.301-5.705C231.253,125.541,232.349,121.339,232.349,116.192    L232.349,116.192z M297.869,138.843c0,5.011-2.317,7.523-6.989,7.523c-2.191,0-4.4-1.27-6.575-3.808l-20.605-22.948v19.538    c0,4.813-2.336,7.217-7.007,7.217c-2.067,0-3.647-0.657-4.762-1.945c-1.096-1.322-1.633-3.006-1.633-5.057V92.847    c0-2.052,0.573-3.753,1.707-5.048c1.203-1.304,2.818-1.943,4.868-1.943c4.525,0,6.826,2.438,6.826,7.307v16.325l19.079-20.735    c1.832-1.934,3.826-2.896,6.001-2.896c1.725,0,3.306,0.692,4.689,2.043c1.364,1.385,2.028,2.933,2.028,4.661    c0,1.602-0.915,3.347-2.694,5.211l-16.097,16.208l19.008,20.563C297.15,136.214,297.869,137.646,297.869,138.843L297.869,138.843z     M314.594,139.059c0,4.878-2.227,7.308-6.719,7.308c-4.473,0-6.701-2.404-6.701-7.217V92.937c0-4.732,2.265-7.118,6.845-7.118    c4.386,0,6.575,2.375,6.575,7.118V139.059L314.594,139.059z M373.397,138.869c0,2.142-0.61,3.915-1.78,5.337    c-1.202,1.431-2.892,2.161-5.011,2.161c-2.317,0-4.652-1.387-6.918-4.194l-25.099-31.38v28.761c0,2.133-0.628,3.816-1.903,5.013    c-1.275,1.214-2.982,1.809-5.103,1.809c-2.065,0-3.664-0.676-4.76-2.052c-1.078-1.377-1.652-3.068-1.652-5.157V92.964    c0-2.007,0.61-3.663,1.76-5.021c1.149-1.322,2.713-1.98,4.652-1.98c1.385,0,2.57,0.316,3.593,0.998    c1.458,0.938,2.606,1.953,3.413,3.024l25.225,31.354l0.091-0.089V92.964c0-2.07,0.594-3.744,1.777-5.04    c1.152-1.287,2.749-1.952,4.727-1.952c4.688,0,7.006,2.34,7.006,6.992L373.397,138.869L373.397,138.869z" style="fill:#007CC3;"/>
<path d="M-260.292,173.616h-22.602c-2.074,0-3.61,0.322-4.59,1.006    c-1.393,0.92-2.101,2.213-2.101,3.817v1.998c0,3.456,2.289,5.202,6.906,5.202h11.193c3.261,0,5.939,1.095,8.049,3.311    c2.093,2.195,3.145,4.914,3.145,8.209v6.298c0,3.149-1.069,5.956-3.189,8.46c-1.249,1.457-2.606,2.428-3.998,2.896    c-1.123,0.325-2.785,0.504-4.993,0.504h-25.62v-8.64h23.328c2.39,0,3.962-0.684,4.77-1.997c0.603-0.937,0.89-2.646,0.89-5.237    c0-3.456-1.851-5.185-5.578-5.185h-10.591c-3.611,0-6.584-0.97-8.91-2.896c-2.615-2.071-3.908-4.878-3.908-8.334v-6.694    c0-3.763,1.508-6.788,4.483-9.145c1.805-1.385,4.589-2.068,8.38-2.068h24.937v8.475l0,0V173.616z M-208.813,219.71    c0,4.013-1.132,7.235-3.395,9.735c-2.264,2.484-5.373,3.655-9.306,3.655h-28.799v-8.657h26.409c2.865,0,4.76-0.884,5.686-2.61    c0.54-1.117,0.818-3.313,0.818-6.479h-19.511c-4.078,0-7.24-1.115-9.504-3.328c-2.604-2.558-3.897-5.796-3.897-9.701v-37.203    h8.605v34.754c0,4.553,2.228,6.822,6.683,6.822h15.415c1.445,0,2.209-0.865,2.209-2.594v-38.982h8.587V219.71L-208.813,219.71z     M-137.417,215.318h-8.587v-34.88c0-3.421-1.205-5.51-3.621-6.318c-0.906-0.341-3.593-0.503-7.995-0.503    c-1.93,0-3.503,0.7-4.688,2.121c-0.819,0.9-1.212,2.538-1.212,4.881v34.699h-8.507v-34.665c0-3.419-1.034-5.543-3.065-6.425    c-1.077-0.397-3.683-0.595-7.859-0.595c-4.446,0-6.666,2.286-6.666,6.805v34.916h-8.605v-37.022c0-8.785,4.169-13.21,12.504-13.21    h7.796c2.542,0,4.555,0.358,6.001,1.114c1.464,0.739,2.875,2.089,4.202,4.106c2.409-3.495,5.822-5.221,10.296-5.221h7.707    c3.8,0,6.791,1.186,8.991,3.509c2.21,2.356,3.307,5.578,3.307,9.736V215.318L-137.417,215.318z M-84.707,201.585    c0,4.806-1.365,8.278-4.034,10.458c-2.722,2.195-5.991,3.274-9.861,3.274h-15.1c-8.752,0-13.107-4.48-13.107-13.427v-23.56    c0-4.015,1.159-7.217,3.52-9.61c2.319-2.414,5.49-3.6,9.496-3.6h20.472v-17.757h8.632v54.221H-84.707z M-93.321,200.289v-24.552    c0-1.367-0.674-1.996-2.075-1.996h-15.819c-4.661,0-6.969,2.305-6.969,6.911v19.134c0,2.394,0.421,4.083,1.292,5.003    c1.206,1.277,3.1,1.924,5.687,1.924h10.402C-95.801,206.678-93.321,204.537-93.321,200.289L-93.321,200.289z M-32.401,184.865    l-32.904,13.427v1.476c0,2.701,0.729,4.59,2.202,5.705c1.024,0.812,2.75,1.206,5.21,1.206h25.492v8.658h-27.081    c-4.67,0-8.112-0.955-10.313-2.826c-2.803-2.357-4.204-5.938-4.204-10.834v-23.739c0-8.532,4.545-12.815,13.699-12.815h15.101    c8.523,0,12.783,4.481,12.783,13.425v6.318H-32.401z M-41.203,180.022v-0.772c0-3.744-2.246-5.633-6.747-5.633h-9.485    c-5.255,0-7.86,2.141-7.86,6.405v9.9L-41.203,180.022z M23.213,165.121L3.9,211.773c-1.096,2.752-3.054,4.141-5.785,4.141    c-2.711,0-4.653-1.389-5.804-4.141l-19.384-46.651h8.893l16.187,39.162l16.42-39.162H23.213z M71.019,184.865l-32.913,13.427    v1.476c0,2.701,0.772,4.59,2.21,5.705c1.006,0.812,2.732,1.206,5.228,1.206h25.476v8.658H43.963c-4.706,0-8.102-0.955-10.33-2.826    c-2.822-2.357-4.187-5.938-4.187-10.834v-23.739c0-8.532,4.563-12.815,13.671-12.815h15.109c8.534,0,12.792,4.481,12.792,13.425    V184.865L71.019,184.865z M62.198,180.022v-0.772c0-3.744-2.265-5.633-6.773-5.633H45.92c-5.228,0-7.833,2.141-7.833,6.405v9.9    L62.198,180.022L62.198,180.022z M89.398,215.318h-8.587v-67.944h8.587V215.318z M141.892,202.772c0,4.429-1.4,7.742-4.185,10.027    c-1.995,1.674-5.013,2.537-9.001,2.537h-14.894c-4.527,0-7.941-1.134-10.188-3.311c-2.316-2.232-3.412-5.313-3.412-9.254v-24.943    c0-4.393,1.383-7.776,4.293-10.135c2.047-1.71,5.158-2.572,9.307-2.572h14.874c4.152,0,7.187,0.828,9.108,2.5    c2.733,2.323,4.097,5.726,4.097,10.24V202.772L141.892,202.772z M133.305,200.487v-20.265c0-2.252-0.664-3.979-1.993-5.202    c-1.06-0.936-2.712-1.387-4.978-1.387h-10.222c-2.338,0-4.077,0.451-5.211,1.387c-1.401,1.151-2.102,2.878-2.102,5.202v20.156    c0,2.179,0.7,3.87,2.102,5.022c1.061,0.846,2.623,1.297,4.635,1.297h11.391c1.94,0,3.414-0.451,4.385-1.297    C132.641,204.248,133.305,202.628,133.305,200.487z M194.244,202.772c0,3.691-1.203,6.661-3.557,9.037    c-2.372,2.321-5.391,3.527-9.038,3.527h-20.426v17.836h-8.587v-54.717c0-8.89,4.221-13.334,12.718-13.334h15.379    c9.001,0,13.511,4.318,13.511,13.029V202.772L194.244,202.772L194.244,202.772z M185.746,200.289v-20.463    c0-4.122-2.336-6.21-6.915-6.21h-10.511c-4.761,0-7.097,2.285-7.097,6.821v24.172c0,1.385,0.79,2.068,2.3,2.068h15.827    C183.591,206.678,185.746,204.537,185.746,200.289L185.746,200.289z M246.524,184.865l-32.894,13.427v1.476    c0,2.701,0.718,4.59,2.19,5.705c1.005,0.812,2.732,1.206,5.229,1.206h25.475v8.658H219.45c-4.671,0-8.102-0.955-10.313-2.826    c-2.821-2.357-4.186-5.938-4.186-10.834v-23.739c0-8.532,4.562-12.815,13.672-12.815h15.108c8.551,0,12.809,4.481,12.809,13.425    v6.318H246.524z M237.722,180.022v-0.772c0-3.744-2.301-5.633-6.756-5.633h-9.486c-5.263,0-7.85,2.141-7.85,6.405v9.9    L237.722,180.022z M276.113,173.616c-4.24,0-6.897,0.196-7.886,0.611c-2.21,0.846-3.306,3.059-3.306,6.605v34.484h-8.588v-36.771    c0-8.963,4.454-13.425,13.384-13.425h6.396V173.616z M291.921,209.991c0,1.673-0.573,3.095-1.687,4.265    c-1.15,1.169-2.551,1.746-4.186,1.746c-1.637,0-2.983-0.577-4.169-1.746c-1.167-1.17-1.726-2.558-1.726-4.176    c0-1.602,0.54-3.041,1.654-4.248c1.148-1.223,2.516-1.871,4.131-1.871c1.652,0,3.073,0.593,4.24,1.763    C291.348,206.895,291.921,208.334,291.921,209.991z M321.332,173.616c-4.274,0-6.917,0.196-7.924,0.611    c-2.191,0.846-3.287,3.059-3.287,6.605v34.484h-8.623v-36.771c0-8.963,4.475-13.425,13.42-13.425h6.414V173.616L321.332,173.616z     M370.845,202.665c0,8.424-4.527,12.652-13.527,12.652h-14.731c-8.984,0-13.439-4.229-13.439-12.652v-37.544h8.57v35.042    c0,2.105,0.646,3.763,1.887,5.021c1.023,0.99,2.964,1.494,5.82,1.494h9.197c5.104,0,7.617-2.141,7.617-6.407v-35.149h8.606    V202.665L370.845,202.665z" style="fill:#495677;"/>
</g>
</g>
</svg>
