<?xml version="1.0" encoding="utf-8"?>
<!-- Generator: Adobe Illustrator 15.1.0, SVG Export Plug-In . SVG Version: 6.00 Build 0)  -->
<!DOCTYPE svg PUBLIC "-//W3C//DTD SVG 1.1//EN" "http://www.w3.org/Graphics/SVG/1.1/DTD/svg11.dtd">
<svg version="1.1" id="Слой_1" xmlns="http://www.w3.org/2000/svg" xmlns:xlink="http://www.w3.org/1999/xlink" x="0px" y="0px"
	 width="96px" height="96px" viewBox="0 0 96 96" enable-background="new 0 0 96 96" xml:space="preserve">
<g id="Слой_1_1_">
	<g>
		
			<linearGradient id="SVGID_1_" gradientUnits="userSpaceOnUse" x1="73.2842" y1="-1236.1455" x2="73.2842" y2="-1156.1455" gradientTransform="matrix(1 0 0 -1 -25.2603 -1148.1455)">
			<stop  offset="0" style="stop-color:#0EB510"/>
			<stop  offset="0.636" style="stop-color:#20DD33"/>
			<stop  offset="1" style="stop-color:#28EF42"/>
		</linearGradient>
		<path fill="url(#SVGID_1_)" d="M88,47.999C88,77.633,77.645,88,48.024,88C18.407,88,8.047,77.632,8.047,47.999S18.408,8,48.024,8
			C77.645,8,88,18.366,88,47.999z"/>
		
			<linearGradient id="SVGID_2_" gradientUnits="userSpaceOnUse" x1="73.2363" y1="-1236.1445" x2="73.2363" y2="-1156.1455" gradientTransform="matrix(1 0 0 -1 -25.2603 -1148.1455)">
			<stop  offset="0" style="stop-color:#FFFFFF;stop-opacity:0.02"/>
			<stop  offset="1" style="stop-color:#FFFFFF;stop-opacity:0.45"/>
		</linearGradient>
		<path fill="url(#SVGID_2_)" d="M47.976,8C18.359,8,8,18.366,8,48c0,29.633,10.358,39.999,39.976,39.999
			c29.62,0,39.976-10.365,39.976-39.999C87.953,18.366,77.594,8,47.976,8z M47.976,86.518c-28.785,0-38.5-9.718-38.5-38.518
			c0-28.802,9.717-38.52,38.5-38.52c28.784,0,38.5,9.72,38.5,38.521C86.477,76.8,76.759,86.518,47.976,86.518z"/>
	</g>
	<g opacity="0.5">
		<path opacity="0.3" enable-background="new    " d="M67.736,23.656H50.857c-3.271,0-5.924,2.657-5.924,5.923v6.504
			c-0.246,0.495-0.528,1.085-0.782,1.619c-0.229,0.48-0.532,1.12-0.665,1.368c-0.148,0.167-0.477,0.534-0.751,0.84
			c-0.208,0.23-0.396,0.438-0.562,0.624c-0.099-0.009-0.203-0.014-0.314-0.014c-0.128,0-0.272,0.007-0.426,0.016
			c-0.117,0.006-0.222,0.012-0.33,0.012c-0.151,0-0.222-0.014-0.25-0.023c-0.111-0.031-0.205-0.074-0.335-0.131
			c-0.341-0.154-0.856-0.386-1.618-0.386c-0.085,0-0.174,0.003-0.268,0.009c-1.595,0.108-3.206,0.325-4.185,1.187
			c-0.32,0.283-0.557,0.611-0.738,0.95c-0.956,0.034-1.849,0.238-2.724,0.618c-0.692,0.308-0.991,0.835-1.169,1.15
			c-0.107,0.189-0.23,0.405-0.518,0.746c-0.14,0.167-0.482,0.573-0.646,0.72c-0.108,0.023-0.271,0.053-0.39,0.076
			c-0.821,0.154-1.529,0.285-2.067,0.83c-0.257,0.261-0.646,0.751-1.078,2.009c-0.09,0.264-0.183,0.629-0.339,1.254
			c-0.162,0.646-0.383,1.533-0.545,1.961c-0.166,0.438-0.514,1.23-0.851,2c-0.303,0.691-0.616,1.404-0.855,1.988
			c-0.491,1.199-0.584,1.5-0.721,1.967l-0.019,0.064c-0.044,0.148-0.114,0.422-0.197,0.744c-0.133,0.52-0.354,1.387-0.471,1.695
			c-0.201,0.53-0.489,0.957-0.905,1.336c-0.5,0.451-0.704,1.141-0.538,1.793c0.165,0.647,0.681,1.16,1.335,1.315
			c0.026,0.011,2.81,0.761,6.81,4.313c3.824,3.395,5.328,5.668,5.343,5.688c0.31,0.479,0.828,0.783,1.396,0.824
			c0.042,0.002,0.085,0.004,0.127,0.004c0.522,0,1.022-0.225,1.368-0.619c1.159-1.328,2.558-2.896,2.933-3.271
			c0.131-0.047,0.431-0.112,0.676-0.168c0.236-0.053,0.497-0.108,0.785-0.184c0.164-0.043,0.359-0.086,0.576-0.135
			c1.114-0.252,2.712-0.613,4.115-1.379c0.677,2.523,2.979,4.395,5.715,4.395h16.881c3.266,0,5.922-2.656,5.922-5.926V29.58
			C73.66,26.313,71.002,23.656,67.736,23.656z"/>
		<path opacity="0.25" enable-background="new    " d="M67.404,23.934H50.82c-3.208,0-5.818,2.621-5.818,5.841v6.416
			c-0.243,0.488-0.519,1.07-0.768,1.596c-0.225,0.474-0.523,1.105-0.653,1.35c-0.145,0.165-0.469,0.526-0.738,0.827
			c-0.204,0.229-0.389,0.434-0.552,0.616c-0.098-0.009-0.198-0.013-0.308-0.013c-0.126,0-0.267,0.007-0.418,0.015
			c-0.116,0.006-0.218,0.012-0.324,0.012c-0.148,0-0.218-0.014-0.245-0.021c-0.109-0.031-0.201-0.074-0.33-0.13
			c-0.334-0.152-0.841-0.38-1.59-0.38c-0.083,0-0.171,0.003-0.263,0.009c-1.566,0.104-3.148,0.32-4.11,1.169
			c-0.315,0.28-0.548,0.604-0.726,0.938c-0.938,0.031-1.816,0.232-2.677,0.609c-0.68,0.304-0.972,0.823-1.148,1.135
			c-0.106,0.187-0.226,0.4-0.51,0.736c-0.136,0.163-0.473,0.565-0.633,0.708c-0.106,0.024-0.266,0.053-0.382,0.076
			c-0.806,0.151-1.503,0.282-2.031,0.818c-0.252,0.257-0.635,0.741-1.059,1.981c-0.088,0.259-0.179,0.619-0.333,1.234
			c-0.159,0.641-0.376,1.516-0.537,1.938c-0.162,0.428-0.504,1.213-0.835,1.973c-0.298,0.682-0.605,1.387-0.84,1.959
			c-0.482,1.188-0.575,1.48-0.707,1.941l-0.02,0.063c-0.043,0.146-0.111,0.416-0.193,0.732c-0.13,0.512-0.349,1.371-0.462,1.672
			c-0.198,0.527-0.481,0.945-0.89,1.318c-0.49,0.443-0.691,1.125-0.528,1.77c0.163,0.643,0.669,1.143,1.312,1.299
			c0.026,0.01,2.76,0.748,6.689,4.25c3.757,3.354,5.234,5.592,5.248,5.613c0.306,0.471,0.814,0.771,1.372,0.811
			c0.042,0.004,0.083,0.004,0.125,0.004c0.513,0,1.005-0.219,1.344-0.604c1.139-1.313,2.512-2.854,2.88-3.229
			c0.129-0.043,0.424-0.107,0.664-0.164c0.233-0.051,0.488-0.107,0.771-0.182c0.161-0.041,0.353-0.082,0.565-0.134
			c1.096-0.248,2.665-0.604,4.042-1.356c0.666,2.49,2.927,4.332,5.614,4.332H67.4c3.207,0,5.814-2.619,5.814-5.842V29.775
			C73.223,26.555,70.611,23.934,67.404,23.934z"/>
		<path opacity="0.4" enable-background="new    " d="M67.127,24.62H50.848c-3.146,0-5.713,2.563-5.713,5.712v6.274
			c-0.239,0.477-0.51,1.046-0.755,1.561c-0.221,0.463-0.513,1.08-0.641,1.32c-0.143,0.161-0.46,0.514-0.725,0.81
			c-0.2,0.223-0.382,0.424-0.542,0.602c-0.095-0.008-0.195-0.013-0.302-0.013c-0.124,0-0.262,0.006-0.411,0.015
			c-0.113,0.006-0.213,0.012-0.318,0.012c-0.146,0-0.213-0.014-0.241-0.022c-0.107-0.031-0.198-0.072-0.323-0.127
			c-0.329-0.148-0.826-0.371-1.56-0.371c-0.083,0-0.168,0.003-0.259,0.008c-1.538,0.103-3.092,0.314-4.036,1.143
			c-0.31,0.273-0.538,0.59-0.713,0.917c-0.921,0.032-1.783,0.229-2.627,0.596c-0.667,0.296-0.956,0.806-1.127,1.109
			c-0.104,0.183-0.221,0.392-0.5,0.72c-0.135,0.16-0.464,0.552-0.623,0.693c-0.104,0.022-0.262,0.052-0.375,0.074
			c-0.792,0.147-1.475,0.275-1.994,0.801c-0.248,0.25-0.624,0.724-1.04,1.937c-0.087,0.253-0.176,0.607-0.327,1.208
			c-0.156,0.625-0.37,1.479-0.526,1.891c-0.159,0.422-0.495,1.189-0.82,1.93c-0.292,0.666-0.594,1.355-0.824,1.918
			c-0.473,1.158-0.564,1.447-0.695,1.896l-0.019,0.063c-0.042,0.146-0.109,0.406-0.189,0.719c-0.128,0.502-0.342,1.338-0.454,1.635
			c-0.194,0.519-0.471,0.927-0.873,1.289c-0.481,0.437-0.679,1.104-0.519,1.729c0.159,0.627,0.657,1.117,1.288,1.271
			c0.026,0.009,2.71,0.729,6.568,4.151c3.688,3.275,5.137,5.47,5.152,5.49c0.3,0.459,0.799,0.756,1.346,0.795
			c0.042,0.002,0.083,0.004,0.124,0.004c0.502,0,0.986-0.217,1.32-0.598c1.118-1.281,2.466-2.796,2.829-3.158
			c0.126-0.045,0.415-0.108,0.651-0.162c0.229-0.051,0.479-0.104,0.757-0.176c0.158-0.039,0.347-0.082,0.556-0.129
			c1.076-0.242,2.616-0.593,3.969-1.328c0.653,2.437,2.874,4.235,5.513,4.235h16.277c3.15,0,5.713-2.563,5.713-5.713V30.333
			C72.84,27.183,70.277,24.62,67.127,24.62z"/>
	</g>
	<path fill="#FFFFFF" d="M67.127,24.182H50.848c-3.146,0-5.713,2.563-5.713,5.713v37.022c0,3.149,2.563,5.713,5.713,5.713h16.279
		c3.15,0,5.713-2.563,5.713-5.713V29.896C72.84,26.745,70.277,24.182,67.127,24.182L67.127,24.182z"/>
	<g>
		
			<radialGradient id="SVGID_3_" cx="75.9092" cy="2061.5117" r="18.0465" gradientTransform="matrix(1 0 0 1 -16.9204 -2013.1055)" gradientUnits="userSpaceOnUse">
			<stop  offset="0" style="stop-color:#0087D2"/>
			<stop  offset="1" style="stop-color:#00549E"/>
		</radialGradient>
		<path fill="url(#SVGID_3_)" d="M71.088,66.917c0,2.181-1.783,3.961-3.961,3.961H50.848c-2.18,0-3.958-1.78-3.958-3.961V29.896
			c0-2.179,1.781-3.961,3.958-3.961h16.279c2.178,0,3.961,1.782,3.961,3.961V66.917z"/>
	</g>
	<circle fill="#FFFFFF" cx="58.986" cy="66.295" r="2.107"/>
	<rect x="48.986" y="33.185" fill="#97C4FF" width="20" height="30"/>
	<path fill="#FFFFFF" d="M66.166,29.555c-0.564,0-1.023,0.458-1.023,1.022c0,0.566,0.459,1.023,1.023,1.023s1.023-0.457,1.023-1.023
		C67.189,30.012,66.73,29.555,66.166,29.555z M66.166,31.015c-0.242,0-0.438-0.195-0.438-0.438c0-0.242,0.19-0.438,0.438-0.438
		s0.438,0.196,0.438,0.438C66.604,30.82,66.408,31.015,66.166,31.015z"/>
	<rect x="56.574" y="29.859" fill="#FFFFFF" width="4.824" height="0.892"/>
	<path fill="#FFFFFF" d="M49.953,26.128c-0.99,0-1.8,0.362-2.341,1.047c-0.1,0.125-0.182,0.265-0.246,0.414
		c-0.042,0.051-0.082,0.105-0.12,0.163c-0.362,0.555-0.554,1.189-0.554,1.835c0,0.522-0.251,2.593-0.736,4.229
		c-0.187,0.627-0.281,0.997-0.342,1.242c-0.085,0.336-0.085,0.336-0.376,0.904c-0.261,0.51-0.578,1.177-0.858,1.767
		c-0.221,0.463-0.513,1.08-0.641,1.32c-0.143,0.161-0.46,0.514-0.725,0.81c-0.2,0.223-0.382,0.424-0.542,0.602
		c-0.095-0.008-0.195-0.013-0.302-0.013c-0.124,0-0.262,0.007-0.411,0.015c-0.113,0.006-0.213,0.012-0.318,0.012
		c-0.146,0-0.213-0.014-0.241-0.022c-0.107-0.03-0.198-0.072-0.323-0.127c-0.329-0.148-0.826-0.371-1.56-0.371
		c-0.083,0-0.168,0.003-0.259,0.008c-1.538,0.104-3.092,0.314-4.036,1.143c-0.31,0.274-0.538,0.591-0.713,0.917
		c-0.921,0.032-1.783,0.229-2.627,0.596c-0.667,0.296-0.956,0.806-1.127,1.109c-0.104,0.183-0.221,0.392-0.5,0.72
		c-0.135,0.16-0.464,0.552-0.623,0.694c-0.104,0.022-0.262,0.051-0.375,0.073c-0.792,0.147-1.475,0.276-1.994,0.801
		c-0.248,0.25-0.624,0.724-1.04,1.937c-0.087,0.253-0.176,0.605-0.327,1.209c-0.156,0.623-0.37,1.479-0.526,1.891
		c-0.159,0.422-0.495,1.188-0.82,1.928c-0.292,0.668-0.594,1.357-0.824,1.918c-0.473,1.16-0.564,1.449-0.695,1.898l-0.019,0.064
		c-0.042,0.143-0.109,0.404-0.189,0.715c-0.128,0.502-0.342,1.338-0.454,1.635c-0.194,0.516-0.471,0.926-0.873,1.291
		c-0.481,0.432-0.679,1.102-0.519,1.729c0.159,0.629,0.657,1.119,1.288,1.271c0.026,0.008,2.71,0.73,6.568,4.154
		c3.688,3.275,5.137,5.467,5.152,5.49c0.3,0.459,0.799,0.754,1.346,0.793c0.042,0.002,0.083,0.004,0.124,0.004
		c0.502,0,0.986-0.217,1.32-0.596c1.118-1.283,2.466-2.8,2.829-3.158c0.126-0.047,0.415-0.111,0.651-0.162
		c0.229-0.053,0.479-0.107,0.757-0.178c0.158-0.037,0.347-0.08,0.556-0.134c1.265-0.278,3.177-0.713,4.666-1.752
		c1.434-1.002,2.603-1.894,3.639-2.981c1.533-1.619,2.479-2.697,2.981-3.396c0.324-0.451,0.568-0.885,0.767-1.23
		c0.127-0.229,0.302-0.541,0.382-0.625c0.146-0.143,0.297-0.26,0.51-0.42c0.229-0.17,0.504-0.379,0.815-0.666
		c0.246-0.225,0.474-0.457,0.675-0.664c0.153-0.151,0.383-0.391,0.475-0.463c0.434-0.281,0.738-0.646,0.986-0.938
		c0.057-0.065,0.146-0.17,0.174-0.201c0.08-0.076,0.176-0.16,0.266-0.231c0.041-0.033,0.074-0.07,0.111-0.109l2.416-1.492
		c0.313-0.195,0.563-0.482,0.699-0.822c0.377-0.912,0.346-2.258-0.574-3.209c-0.06-0.059-0.107-0.113-0.166-0.168
		c-0.107-0.115-0.269-0.268-0.451-0.428c-0.021-0.018-0.035-0.035-0.059-0.051c-0.097-0.08-0.212-0.172-0.353-0.271
		c-0.06-0.037-0.115-0.072-0.175-0.104c-0.065-0.051-0.137-0.098-0.211-0.139c-0.7-0.397-1.491-0.604-2.354-0.604
		c-0.239,0-0.487,0.021-0.741,0.049c-1.097,0.138-2.021,0.338-2.804,0.619c0.188-0.394,0.354-0.767,0.463-1.108
		c0.101-0.313,0.621-2.355,0.597-2.966c-0.039-0.892-0.646-1.643-1.646-2.064c0.797-2.714,1.453-5.028,1.648-5.947
		c0.473-2.197,0.731-5.626,0.658-6.701c-0.08-1.138-0.654-2.693-2.027-3.643c-0.066-0.048-0.144-0.09-0.215-0.127
		c-0.066-0.052-0.146-0.1-0.228-0.142c-0.289-0.155-0.59-0.276-0.896-0.361C50.891,26.206,50.398,26.128,49.953,26.128
		L49.953,26.128z"/>
	
		<radialGradient id="SVGID_4_" cx="61.749" cy="2047.6172" r="39.3067" gradientTransform="matrix(1 0 0 1 -16.9204 -2013.1055)" gradientUnits="userSpaceOnUse">
		<stop  offset="0" style="stop-color:#F5BF16"/>
		<stop  offset="1" style="stop-color:#E57824"/>
	</radialGradient>
	<path fill="url(#SVGID_4_)" d="M49.877,30.976c1.133-0.052,1.373-0.605,1.41-1.026c0.035-0.413,0.063-0.978-0.049-1.793
		c-0.164-0.087-0.113-0.063-0.313-0.117c-1.491-0.43-1.874,0.144-1.948,0.235L48.971,28.4l0,0c-0.017,0.318-0.061,1.161-0.041,1.458
		C48.975,30.579,49.288,31.003,49.877,30.976z M55.393,52.77l-0.205-0.134l0.123-0.202c0.027-0.043,0.258-0.416,0.523-0.589
		c0.246-0.157,1.203-0.616,2.24-0.979c-0.48-0.273-1.115-0.447-2.016-0.339c-1.736,0.216-2.929,0.599-3.732,1.226
		c-0.807,0.627-2.074,2.265-2.408,2.549c-0.333,0.281-1.029,0.476-1.277,0.5c-0.152-0.139-0.479-0.631-0.539-0.944
		c-0.056-0.313-0.041-0.982-0.009-1.508c0.03-0.519,0.442-1.938,0.563-2.435c0.121-0.488,3.291-10.89,3.732-12.955
		c0.438-2.065,0.686-5.338,0.623-6.212c-0.052-0.688-0.396-1.715-1.275-2.327c0.078,0.702,0.049,1.258,0.01,1.716
		c-0.064,0.75-0.604,1.163-1.602,1.229c-0.041,0.002-0.082,0.005-0.121,0.005c-0.803,0-1.303-0.563-1.34-1.504
		c-0.013-0.232,0.01-0.768,0.022-1.156c-0.134,0.204-0.268,0.503-0.268,0.876c0,0.734-0.291,2.983-0.807,4.727
		c-0.52,1.742-0.26,1.316-0.839,2.447c-0.579,1.131-1.466,3.112-1.639,3.324c-0.173,0.211-1.804,2-2.093,2.352
		c-0.289,0.351-1.067,1.147-1.28,1.605c-0.213,0.458-0.401,1.368-0.651,1.695c-0.248,0.324-1.104,1.384-1.104,1.384
		s0.687-1.383,0.833-2.047c0.131-0.594,0.186-1.666,0.793-2.854c-0.292,0.011-0.619,0.006-0.941-0.086
		c-0.64-0.183-0.853-0.471-1.54-0.425c-0.686,0.046-2.372,0.162-2.996,0.711c-0.625,0.552-0.688,1.869-0.992,2.295
		c-0.304,0.428-0.981,1.182-0.981,1.182s0.47-1.056,0.463-2.111c-0.776-0.028-1.539,0.109-2.287,0.438
		c-0.27,0.119-0.255,0.484-0.991,1.354c-0.598,0.71-0.903,1.035-1.283,1.188c-0.383,0.152-1.579,0.255-1.799,0.479
		c-0.221,0.224-0.459,0.778-0.629,1.274c-0.171,0.496-0.553,2.313-0.873,3.151c-0.319,0.847-1.172,2.69-1.661,3.892
		c-0.487,1.188-0.534,1.375-0.654,1.789c-0.121,0.412-0.473,1.912-0.687,2.477c-0.212,0.566-0.588,1.289-1.336,1.969
		c0.47,0.111,3.363,1.029,7.325,4.549c3.962,3.521,5.458,5.846,5.458,5.846s2.601-2.977,3.026-3.354
		c0.427-0.379,1.066-0.424,2.103-0.686c1.037-0.26,3.201-0.611,4.647-1.619c1.447-1.014,2.468-1.809,3.368-2.756
		c0.899-0.947,2.239-2.389,2.833-3.215c0.594-0.822,0.883-1.619,1.322-2.064c0.439-0.439,0.854-0.656,1.389-1.146
		s1.035-1.088,1.373-1.301c0.334-0.215,0.651-0.703,0.912-0.949c0.104-0.094,0.215-0.193,0.315-0.285l0.063-0.313
		c0.002-0.002,0.064-0.357-0.436-0.939C55.619,52.915,55.396,52.77,55.393,52.77z M59.092,51.72
		c-0.043-0.043-0.092-0.094-0.139-0.139c-0.01-0.013-0.02-0.021-0.029-0.031c-0.104-0.104-0.221-0.221-0.352-0.332
		c-0.008-0.006-0.016-0.01-0.021-0.018c-0.066-0.058-0.135-0.113-0.213-0.164c-1.117,0.373-1.852,0.896-2.074,1.037
		c-0.227,0.146-0.412,0.403-0.412,0.403s0.217,0.207,0.814,0.931c0.486,0.59,0.088,1.256,0.088,1.256l2.553-1.619
		C59.307,53.044,59.625,52.271,59.092,51.72z M51.551,44.809c0.547,0.169,0.793,0.438,0.801,0.605
		c0.006,0.165-0.322,1.752-0.518,2.364c-0.193,0.612-0.813,1.682-1.053,2.458c-0.244,0.783-0.35,1.679-0.443,1.769
		c-0.096,0.09-0.25,0.259-0.656,0.4c-0.406,0.145-0.961,0.145-0.961,0.145s0.629-3,0.883-3.901c0.25-0.897,1.229-3.903,1.229-3.903
		S51.154,44.687,51.551,44.809z"/>
	<g>
		<g>
			<path fill="#FFFFFF" d="M67.951,34.829v4.818H61.82v-4.818H67.951 M67.076,35.705h-4.381v3.066h4.381V35.705L67.076,35.705z"/>
		</g>
		<g>
			<path fill="#FFFFFF" d="M67.951,38.771v4.818H61.82v-4.818H67.951 M67.076,39.647h-4.381v3.066h4.381V39.647L67.076,39.647z"/>
		</g>
		<g>
			<path fill="#FFFFFF" d="M67.951,42.713v4.818H61.82v-4.818H67.951 M67.076,43.589h-4.381v3.065h4.381V43.589L67.076,43.589z"/>
		</g>
		<g>
			<path fill="#FFFFFF" d="M67.951,46.655v4.817H61.82v-4.817H67.951 M67.076,47.532h-4.381v3.065h4.381V47.532L67.076,47.532z"/>
		</g>
	</g>
</g>
</svg>
